<svg xmlns="http://www.w3.org/2000/svg" width="121.406" height="136.406" viewBox="0 0 121.406 136.406">
  <defs>
    <style>
      .cls-1 {
        fill: #3f1c7d;
        fill-rule: evenodd;
      }
    </style>
  </defs>
  <path class="cls-1" d="M104,305c0.616,2.6,2.616,5.859,3,8,0.3,1.682-.942,1.74-1,2v9h-1v3h-1q-0.5,2-1,4h-1v2l-3,2v3l-3,2c-1.953,2.745-1.144,4.007-5,5v1H87c-1.509-2.422-2.916-1.58-4-3s-0.04-2.341-2-4c0.991-4.96,4.123-7.9,7-11l2-1c1.3-2.01-.2-4.507,1-7a9.77,9.77,0,0,0,2-2H88c-4.106,4.926-11.381,7.68-13,15H72a8.112,8.112,0,0,1-2,4H69v2H68v2l-2,1v2H65v4H64l-1,4H62v3l-3,2v4l-2,1v2l-2,1v2H54v3H53v2H52l-1,6H50v5H49v2H48v4H47v8c-0.282,3.337-1.425,6.789,0,11h1v3h1v2l4,3v2h1c1.378,1.486.516,1.3,3,2,2.218,2.253,6.448,2.034,10,3v1h1v-1l7,1v-1H85v-1h2v-1h7v-1h3v-1h3v-1l9-1v-1l9-3v-1h2v-1l9-2,1-2c2.015-1.2,5.971-.956,8-2l1-2,11-2a13.765,13.765,0,0,0,4,3c-0.574,2.01.12,0.865-1,2-1.55,5.382-3.143,2.673-7,5l-1,2h-3l-3,4c-1.843.924-5.12,0.046-7,1v1h-2v1h-2v1h-2v1l-6,2v1h-3v1h-3v1h-2v1h-3v1h-2v1h-4v1l-10,2v1H88v1H83v1H80v1c-3.16.984-7.236-.7-9-1H63v-1l-7-1v-1l-4-1v-1H48c-1.316-.517.32-0.492-1-1l-1-3c-3.541-.38-3.036-1.241-6-2l-1-3H38v-2H37v-2l-2-1c-0.952-1.851-3.035-17.439-2-21h1v-6h1v-4h1v-4h1l1-4h1v-5h1v-3h1v-3h1v-2h1v-2l2-1v-5h1v-2h1v-3h1l2-6h1v-2h1v-3l2-1,1-5,2-1v-2h1v-3l5-4v-2l2-1v-2l5-4,1-3,14-10,7-1v-1c2.352-.52,7.259,2.173,9,3v1h3Z" transform="translate(-32.719 -300.906)"/>
</svg>
