<svg xmlns="http://www.w3.org/2000/svg" width="767" height="516" viewBox="0 0 767 516">
  <defs>
    <style>
      .cls-1 {
        fill: #3f1c7d;
        fill-rule: evenodd;
      }
    </style>
  </defs>
  <path id="Rounded_Rectangle_3_copy" data-name="Rounded Rectangle 3 copy" class="cls-1" d="M421.858,1069.16H226.242s-92.231,1.78-92.231-92v-59.9h98.228s-1.325,59.9,46.7,59.9H421.858v92ZM164.406,1146H422.254v135H164.406a30,30,0,0,1-30-30v-75A30,30,0,0,1,164.406,1146ZM421.858,765H226.242s-92.231-1.789-92.231,92.22v60.046h98.228s-1.325-60.046,46.7-60.046H421.858V765ZM352.911,900h38.947a30,30,0,0,1,30,30v47H322.911V930A30,30,0,0,1,352.911,900Zm144.818,0h38.948a30,30,0,0,1,30,30v351H467.729V930A30,30,0,0,1,497.729,900Zm-30-135h98.948v92H467.729V765ZM613.153,976.98H808.769S901,975.2,901,1069.05v59.94H802.773s1.324-59.94-46.7-59.94H613.153V976.98Zm0,304.02H808.769S901,1282.79,901,1188.94v-59.95H802.773s1.324,59.95-46.7,59.95H613.153V1281Zm0-516H871a30,30,0,0,1,30,30v75a30,30,0,0,1-30,30H613.152V765Zm0,304H712.1v47a30,30,0,0,1-30,30H643.152a30,30,0,0,1-30-30v-47Z" transform="translate(-134 -765)"/>
</svg>
