<svg xmlns="http://www.w3.org/2000/svg" width="773.406" height="522.001" viewBox="0 0 773.406 522.001">
  <defs>
    <style>
      .cls-1 {
        fill: none;
        stroke: #3f1c7d;
        stroke-width: 6px;
        fill-rule: evenodd;
      }
    </style>
  </defs>
  <path id="logo_with_lines_inside" data-name="logo with lines inside" class="cls-1" d="M412.723,1032.13H217s-92.28,1.78-92.28-92v-59.9H223s-1.325,59.9,46.72,59.9h143v92Zm-257.6,76.84h258v135h-258a30,30,0,0,1-30-30v-75A30,30,0,0,1,155.119,1108.97Zm257.6-381H217s-92.28-1.788-92.28,92.221v60.045H223s-1.325-60.045,46.72-60.045h143V727.968Zm-69,135h39a30,30,0,0,1,30,30v46h-99v-46A30,30,0,0,1,343.723,862.969Zm144.9,0h39a30,30,0,0,1,30,30v351h-99v-351A30,30,0,0,1,488.619,862.969Zm-30-135h99v92h-99v-92Zm145.5,211.98h195.72s92.28-1.786,92.28,92.071v59.94h-98.28s1.326-59.94-46.72-59.94h-143V939.949Zm0,304.021h195.72s92.28,1.79,92.28-92.07v-59.94h-98.28s1.326,59.94-46.72,59.94h-143v92.07Zm0-516h258a30,30,0,0,1,30,30v75a30,30,0,0,1-30,30h-258v-135Zm0,305h99v46a30,30,0,0,1-30,30h-39a30,30,0,0,1-30-30v-46Z" transform="translate(-121.719 -724.969)"/>
</svg>
