<svg xmlns="http://www.w3.org/2000/svg" width="767" height="516" viewBox="0 0 767 516">
  <defs>
    <style>
      .cls-1 {
        fill: #3f1c7d;
        fill-rule: evenodd;
      }
    </style>
  </defs>
  <path id="Rounded_Rectangle_3_copy" data-name="Rounded Rectangle 3 copy" class="cls-1" d="M412.858,1021.16H217.242s-92.231,1.78-92.231-92v-59.9h98.228s-1.325,59.9,46.7,59.9H412.858v92ZM155.406,1098H413.254v135H155.406a30,30,0,0,1-30-30v-75A30,30,0,0,1,155.406,1098ZM412.858,717H217.242s-92.231-1.789-92.231,92.22v60.046h98.228s-1.325-60.046,46.7-60.046H412.858V717ZM343.911,852h38.947a30,30,0,0,1,30,30v47H313.911V882A30,30,0,0,1,343.911,852Zm144.818,0h38.948a30,30,0,0,1,30,30v351H458.729V882A30,30,0,0,1,488.729,852Zm-30-135h98.948v92H458.729V717ZM604.153,928.98H799.769S892,927.2,892,1021.05v59.94H793.773s1.324-59.94-46.7-59.94H604.153V928.98Zm0,304.02H799.769S892,1234.79,892,1140.94v-59.95H793.773s1.324,59.95-46.7,59.95H604.153V1233Zm0-516H862a30,30,0,0,1,30,30v75a30,30,0,0,1-30,30H604.152V717Zm0,304H703.1v47a30,30,0,0,1-30,30H634.152a30,30,0,0,1-30-30v-47Z" transform="translate(-125 -717)"/>
</svg>
