<svg xmlns="http://www.w3.org/2000/svg" width="773.375" height="522.001" viewBox="0 0 773.375 522.001">
  <defs>
    <style>
      .cls-1 {
        fill: none;
        stroke: #3f1c7d;
        stroke-width: 6px;
        fill-rule: evenodd;
      }
    </style>
  </defs>
  <path id="logo_with_lines_inside" data-name="logo with lines inside" class="cls-1" d="M513.524,1076.87H317.8s-92.28,1.79-92.28-91.99v-59.9H323.8s-1.325,59.9,46.72,59.9h143v91.99Zm-257.6,76.85h258v135h-258a30,30,0,0,1-30-30v-75A30,30,0,0,1,255.92,1153.72Zm257.6-381H317.8s-92.28-1.789-92.28,92.22v60.045H323.8s-1.325-60.045,46.72-60.045h143v-92.22Zm-69,135h39a30,30,0,0,1,30,30v46h-99v-46A30,30,0,0,1,444.524,907.717Zm144.9,0h39a30,30,0,0,1,30,30v351h-99v-351A30,30,0,0,1,589.42,907.717Zm-30-135h99v92h-99v-92ZM704.92,984.7H900.64s92.28-1.785,92.28,92.063v59.95H894.64s1.325-59.95-46.72-59.95h-143V984.7Zm0,304.023H900.64s92.28,1.78,92.28-92.07v-59.94H894.64s1.325,59.94-46.72,59.94h-143v92.07Zm0-516h258a30,30,0,0,1,30,30v75a30,30,0,0,1-30,30h-258v-135Zm0,305h99v46a30,30,0,0,1-30,30h-39a30,30,0,0,1-30-30v-46Z" transform="translate(-222.531 -769.719)"/>
</svg>
